<svg width="48" height="49" viewBox="0 0 48 49" fill="none" xmlns="http://www.w3.org/2000/svg">
<rect y="0.5" width="48" height="48" rx="24" fill="white"/>
<path d="M43.611 20.583H42V20.5H24V28.5H35.303C33.654 33.157 29.223 36.5 24 36.5C17.373 36.5 12 31.127 12 24.5C12 17.873 17.373 12.5 24 12.5C27.059 12.5 29.842 13.654 31.961 15.539L37.618 9.882C34.046 6.553 29.268 4.5 24 4.5C12.955 4.5 4 13.455 4 24.5C4 35.545 12.955 44.5 24 44.5C35.045 44.5 44 35.545 44 24.5C44 23.159 43.862 21.85 43.611 20.583V20.583Z" fill="#FFC107"/>
<path d="M6.306 15.191L12.877 20.01C14.655 15.608 18.961 12.5 24 12.5C27.059 12.5 29.842 13.654 31.961 15.539L37.618 9.882C34.046 6.553 29.268 4.5 24 4.5C16.318 4.5 9.656 8.837 6.306 15.191V15.191Z" fill="#FF3D00"/>
<path d="M24 44.5C29.166 44.5 33.86 42.523 37.409 39.308L31.219 34.07C29.211 35.591 26.715 36.5 24 36.5C18.798 36.5 14.381 33.183 12.717 28.554L6.195 33.579C9.505 40.056 16.227 44.5 24 44.5V44.5Z" fill="#4CAF50"/>
<path d="M43.611 20.583H42V20.5H24V28.5H35.303C34.511 30.737 33.072 32.666 31.216 34.071C31.217 34.07 31.218 34.07 31.219 34.069L37.409 39.307C36.971 39.705 44 34.5 44 24.5C44 23.159 43.862 21.85 43.611 20.583V20.583Z" fill="#1976D2"/>
</svg>
